<?xml version="1.0" standalone="no"?>
<!DOCTYPE svg PUBLIC "-//W3C//DTD SVG 20010904//EN"
 "http://www.w3.org/TR/2001/REC-SVG-20010904/DTD/svg10.dtd">
<svg version="1.0" xmlns="http://www.w3.org/2000/svg"
 width="270.000000pt" height="270.000000pt" viewBox="0 0 270.000000 270.000000"
 preserveAspectRatio="xMidYMid meet">
<metadata>
Created by potrace 1.14, written by Peter Selinger 2001-2017
</metadata>
<g transform="translate(0.000000,270.000000) scale(0.100000,-0.100000)"
fill="#000000" stroke="none">
<path d="M1148 2335 c-2 -1 -41 -6 -88 -9 -103 -8 -165 -15 -205 -20 -16 -3
-59 -8 -95 -12 -36 -3 -71 -12 -79 -19 -21 -20 -19 -336 4 -625 3 -30 7 -89
10 -130 14 -199 19 -269 30 -395 3 -33 7 -87 10 -120 4 -59 9 -116 20 -225 3
-30 8 -80 11 -110 24 -255 34 -300 70 -300 14 0 25 -32 33 -101 2 -13 48 -26
84 -24 62 5 102 14 236 56 69 22 136 40 149 41 12 1 22 5 22 8 0 3 8 6 18 7 9
1 73 18 142 38 453 135 635 278 629 496 -2 81 -44 197 -90 249 -75 86 -186
206 -211 229 -16 13 -28 29 -28 35 0 6 33 30 73 53 99 58 180 140 208 211 18
45 23 79 23 157 1 88 -2 106 -25 155 -46 96 -105 147 -253 224 -191 99 -309
128 -533 131 -89 1 -163 1 -165 0z m92 -261 c92 -10 268 -43 292 -56 16 -8 14
-12 -15 -36 -65 -56 -318 -222 -338 -222 -7 0 -34 135 -44 225 -4 28 -9 58
-11 67 -8 29 6 41 40 33 17 -3 51 -8 76 -11z m110 -1040 c36 -3 79 -8 95 -10
17 -3 46 -7 64 -10 59 -8 111 -27 111 -40 0 -25 -109 -82 -292 -155 -54 -22
-102 -39 -107 -39 -10 0 -21 24 -27 60 -2 14 -7 36 -10 50 -3 14 -7 55 -9 93
l-4 67 57 -5 c31 -2 86 -7 122 -11z"/>
</g>
</svg>
